<mxfile host="app.diagrams.net" modified="2021-08-27T02:26:58.664Z" agent="5.0 (Macintosh; Intel Mac OS X 10_15_7) AppleWebKit/537.36 (KHTML, like Gecko) Chrome/92.0.4515.159 Safari/537.36" etag="5N4jc6nVmqX144L30kst" version="15.0.2" type="github">
  <diagram id="cbZ6bPUv_3AqSApJYiXi" name="Page-1">
    <mxGraphModel dx="946" dy="614" grid="1" gridSize="10" guides="1" tooltips="1" connect="1" arrows="1" fold="1" page="1" pageScale="1" pageWidth="850" pageHeight="1100" math="0" shadow="0">
      <root>
        <mxCell id="0" />
        <mxCell id="1" parent="0" />
        <mxCell id="JozTigrLav8Y_HRZAcUm-5" style="edgeStyle=orthogonalEdgeStyle;rounded=0;orthogonalLoop=1;jettySize=auto;html=1;exitX=0.5;exitY=1;exitDx=0;exitDy=0;entryX=0.5;entryY=0;entryDx=0;entryDy=0;" edge="1" parent="1" source="JozTigrLav8Y_HRZAcUm-1" target="JozTigrLav8Y_HRZAcUm-2">
          <mxGeometry relative="1" as="geometry" />
        </mxCell>
        <mxCell id="JozTigrLav8Y_HRZAcUm-1" value="DSL (antlr4 based)" style="rounded=1;whiteSpace=wrap;html=1;" vertex="1" parent="1">
          <mxGeometry x="260" y="150" width="120" height="60" as="geometry" />
        </mxCell>
        <mxCell id="JozTigrLav8Y_HRZAcUm-7" style="edgeStyle=orthogonalEdgeStyle;rounded=0;orthogonalLoop=1;jettySize=auto;html=1;entryX=0.5;entryY=0;entryDx=0;entryDy=0;" edge="1" parent="1" source="JozTigrLav8Y_HRZAcUm-2" target="JozTigrLav8Y_HRZAcUm-6">
          <mxGeometry relative="1" as="geometry" />
        </mxCell>
        <mxCell id="JozTigrLav8Y_HRZAcUm-2" value="Program&lt;br&gt;&lt;br&gt;&lt;br&gt;&lt;br&gt;&lt;br&gt;&lt;br&gt;&lt;br&gt;" style="rounded=1;whiteSpace=wrap;html=1;" vertex="1" parent="1">
          <mxGeometry x="260" y="240" width="120" height="120" as="geometry" />
        </mxCell>
        <mxCell id="JozTigrLav8Y_HRZAcUm-3" value="Function" style="rounded=0;whiteSpace=wrap;html=1;" vertex="1" parent="1">
          <mxGeometry x="280" y="270" width="80" height="20" as="geometry" />
        </mxCell>
        <mxCell id="JozTigrLav8Y_HRZAcUm-12" style="edgeStyle=orthogonalEdgeStyle;rounded=0;orthogonalLoop=1;jettySize=auto;html=1;entryX=0;entryY=0.5;entryDx=0;entryDy=0;" edge="1" parent="1" source="JozTigrLav8Y_HRZAcUm-6" target="JozTigrLav8Y_HRZAcUm-8">
          <mxGeometry relative="1" as="geometry" />
        </mxCell>
        <mxCell id="JozTigrLav8Y_HRZAcUm-6" value="Command" style="rounded=1;whiteSpace=wrap;html=1;" vertex="1" parent="1">
          <mxGeometry x="260" y="390" width="120" height="60" as="geometry" />
        </mxCell>
        <mxCell id="JozTigrLav8Y_HRZAcUm-19" style="edgeStyle=orthogonalEdgeStyle;rounded=0;orthogonalLoop=1;jettySize=auto;html=1;exitX=0.5;exitY=0;exitDx=0;exitDy=0;entryX=0.5;entryY=1;entryDx=0;entryDy=0;" edge="1" parent="1" source="JozTigrLav8Y_HRZAcUm-8" target="JozTigrLav8Y_HRZAcUm-18">
          <mxGeometry relative="1" as="geometry" />
        </mxCell>
        <mxCell id="JozTigrLav8Y_HRZAcUm-8" value="Schedule" style="rounded=1;whiteSpace=wrap;html=1;" vertex="1" parent="1">
          <mxGeometry x="440" y="390" width="120" height="60" as="geometry" />
        </mxCell>
        <mxCell id="JozTigrLav8Y_HRZAcUm-9" value="" style="endArrow=none;dashed=1;html=1;" edge="1" parent="1">
          <mxGeometry width="50" height="50" relative="1" as="geometry">
            <mxPoint x="410" y="500" as="sourcePoint" />
            <mxPoint x="410" y="100" as="targetPoint" />
          </mxGeometry>
        </mxCell>
        <mxCell id="JozTigrLav8Y_HRZAcUm-10" value="Software Logics" style="text;html=1;strokeColor=none;fillColor=none;align=center;verticalAlign=middle;whiteSpace=wrap;rounded=0;" vertex="1" parent="1">
          <mxGeometry x="300" y="100" width="40" height="20" as="geometry" />
        </mxCell>
        <mxCell id="JozTigrLav8Y_HRZAcUm-11" value="FIrmware Logics" style="text;html=1;strokeColor=none;fillColor=none;align=center;verticalAlign=middle;whiteSpace=wrap;rounded=0;" vertex="1" parent="1">
          <mxGeometry x="480" y="100" width="40" height="20" as="geometry" />
        </mxCell>
        <mxCell id="JozTigrLav8Y_HRZAcUm-13" value="" style="endArrow=none;dashed=1;html=1;" edge="1" parent="1">
          <mxGeometry width="50" height="50" relative="1" as="geometry">
            <mxPoint x="590" y="500" as="sourcePoint" />
            <mxPoint x="590" y="100" as="targetPoint" />
          </mxGeometry>
        </mxCell>
        <mxCell id="JozTigrLav8Y_HRZAcUm-15" value="" style="edgeStyle=orthogonalEdgeStyle;rounded=0;orthogonalLoop=1;jettySize=auto;html=1;" edge="1" parent="1" target="JozTigrLav8Y_HRZAcUm-6">
          <mxGeometry relative="1" as="geometry">
            <mxPoint x="320" y="360" as="sourcePoint" />
          </mxGeometry>
        </mxCell>
        <mxCell id="JozTigrLav8Y_HRZAcUm-14" value="Group" style="rounded=0;whiteSpace=wrap;html=1;" vertex="1" parent="1">
          <mxGeometry x="280" y="290" width="80" height="20" as="geometry" />
        </mxCell>
        <mxCell id="JozTigrLav8Y_HRZAcUm-16" value="Block" style="rounded=0;whiteSpace=wrap;html=1;" vertex="1" parent="1">
          <mxGeometry x="280" y="310" width="80" height="20" as="geometry" />
        </mxCell>
        <mxCell id="JozTigrLav8Y_HRZAcUm-17" value="..." style="rounded=0;whiteSpace=wrap;html=1;" vertex="1" parent="1">
          <mxGeometry x="280" y="330" width="80" height="20" as="geometry" />
        </mxCell>
        <mxCell id="JozTigrLav8Y_HRZAcUm-22" style="edgeStyle=orthogonalEdgeStyle;rounded=0;orthogonalLoop=1;jettySize=auto;html=1;exitX=1;exitY=0.5;exitDx=0;exitDy=0;entryX=0;entryY=0.5;entryDx=0;entryDy=0;" edge="1" parent="1" source="JozTigrLav8Y_HRZAcUm-18" target="JozTigrLav8Y_HRZAcUm-21">
          <mxGeometry relative="1" as="geometry" />
        </mxCell>
        <mxCell id="JozTigrLav8Y_HRZAcUm-18" value="Action" style="rounded=1;whiteSpace=wrap;html=1;" vertex="1" parent="1">
          <mxGeometry x="440" y="150" width="120" height="60" as="geometry" />
        </mxCell>
        <mxCell id="JozTigrLav8Y_HRZAcUm-20" value="Hardware Logics" style="text;html=1;strokeColor=none;fillColor=none;align=center;verticalAlign=middle;whiteSpace=wrap;rounded=0;" vertex="1" parent="1">
          <mxGeometry x="660" y="100" width="40" height="20" as="geometry" />
        </mxCell>
        <mxCell id="JozTigrLav8Y_HRZAcUm-24" style="edgeStyle=orthogonalEdgeStyle;rounded=0;orthogonalLoop=1;jettySize=auto;html=1;exitX=0.5;exitY=1;exitDx=0;exitDy=0;entryX=0.5;entryY=0;entryDx=0;entryDy=0;" edge="1" parent="1" source="JozTigrLav8Y_HRZAcUm-21" target="JozTigrLav8Y_HRZAcUm-23">
          <mxGeometry relative="1" as="geometry" />
        </mxCell>
        <mxCell id="JozTigrLav8Y_HRZAcUm-21" value="Execution" style="rounded=1;whiteSpace=wrap;html=1;" vertex="1" parent="1">
          <mxGeometry x="620" y="150" width="120" height="60" as="geometry" />
        </mxCell>
        <mxCell id="JozTigrLav8Y_HRZAcUm-23" value="Resource" style="rounded=1;whiteSpace=wrap;html=1;" vertex="1" parent="1">
          <mxGeometry x="620" y="260" width="120" height="60" as="geometry" />
        </mxCell>
      </root>
    </mxGraphModel>
  </diagram>
</mxfile>
